<svg width="22" height="22" viewBox="0 0 22 22" fill="none" xmlns="http://www.w3.org/2000/svg">
<path d="M1.60122 21.973C1.3236 21.973 1.04598 21.892 0.81884 21.7571C0.440266 21.5411 0.187885 21.1632 0.0616936 20.7313C-0.0644975 20.2994 0.0112165 19.8405 0.213122 19.4356L6.72458 7.26135L3.59504 8.09816C3.46885 8.12515 3.34266 8.15215 3.19123 8.15215C2.45932 8.15215 1.80313 7.61227 1.62646 6.85644C1.52551 6.42454 1.57598 5.96564 1.80313 5.56074C2.03027 5.15583 2.38361 4.88589 2.78742 4.77792L9.55126 2.96933C9.67745 2.94233 9.80364 2.91534 9.95507 2.91534C10.2327 2.91534 10.5103 2.99632 10.7375 3.13129C11.5198 3.59018 11.7722 4.64295 11.3432 5.45276L5.84124 15.7644L9.5765 13.5239L16.1132 0.890798C16.3908 0.35092 16.9461 0 17.5265 0C18.107 0 18.0565 0.0809814 18.3089 0.215951C18.6875 0.431902 18.9651 0.809816 19.0913 1.24172C19.2175 1.67362 19.167 2.13252 18.9651 2.53742L14.927 10.4196L19.6213 7.63927C19.8737 7.4773 20.1261 7.39632 20.4037 7.39632C20.6813 7.39632 20.8075 7.42331 20.9842 7.5043C21.388 7.66626 21.6908 7.99019 21.8675 8.42209C22.0442 8.85399 22.0442 9.31288 21.8675 9.71779L17.7032 20.8663C17.6275 21.0822 17.5013 21.2712 17.3499 21.4601C17.047 21.7841 16.6432 21.973 16.1889 21.973C15.7346 21.973 15.3813 21.811 15.0784 21.4871L10.6113 16.8712L2.40885 21.7571C2.15646 21.919 1.87884 22 1.60122 22M13.5389 15.1166L15.6084 17.2491L17.2237 12.9301L13.5641 15.1166H13.5389Z" fill="white"/>
</svg>
