<svg width="20" height="20" viewBox="0 0 20 20" fill="none" xmlns="http://www.w3.org/2000/svg">
<path d="M1.11111 17.875H6.30333V8.875H1.11111V17.875ZM7.41444 17.875H12.5856V2.125H7.41444V17.875ZM13.6967 17.875H18.8889V11.125H13.6967V17.875ZM0 17.1826V9.56744C0 9.06756 0.175741 8.63969 0.527222 8.28381C0.878704 7.92794 1.3013 7.75 1.795 7.75H6.30333V2.81744C6.30333 2.31756 6.47907 1.88969 6.83056 1.53381C7.18204 1.17794 7.60463 1 8.09833 1H11.9017C12.3954 1 12.818 1.17794 13.1694 1.53381C13.5209 1.88969 13.6967 2.31756 13.6967 2.81744V10H18.205C18.6987 10 19.1213 10.1779 19.4728 10.5338C19.8243 10.8897 20 11.3176 20 11.8174V17.1826C20 17.6824 19.8243 18.1103 19.4728 18.4662C19.1213 18.8221 18.6987 19 18.205 19H1.795C1.3013 19 0.878704 18.8221 0.527222 18.4662C0.175741 18.1103 0 17.6824 0 17.1826Z" fill="white"/>
</svg>
