<svg width="20" height="20" viewBox="0 0 20 20" fill="none" xmlns="http://www.w3.org/2000/svg">
<path d="M13.5417 16.4714C14.5139 15.5146 15 14.3528 15 12.986C15 11.6191 14.5139 10.4573 13.5417 9.50056C12.5694 8.54378 11.3889 8.0654 10 8.0654C8.61111 8.0654 7.43056 8.54378 6.45833 9.50056C5.48611 10.4573 5 11.6191 5 12.986C5 14.3528 5.48611 15.5146 6.45833 16.4714C7.43056 17.4282 8.61111 17.9065 10 17.9065C11.3889 17.9065 12.5694 17.4282 13.5417 16.4714ZM6.79278 7.88443C7.14889 7.65608 7.52815 7.4721 7.93056 7.3325C8.33296 7.19309 8.74713 7.09112 9.17306 7.02661L6.64528 2.09346H3.8675L6.79278 7.88443ZM4.69667 16.7415C4.70944 16.6195 4.73824 16.4847 4.78306 16.3369C4.82787 16.1889 4.89306 16.0322 4.97861 15.8667C4.63676 15.3229 4.39 14.7351 4.23833 14.1035C4.08648 13.472 4.04694 12.8219 4.11972 12.1533C4.11972 11.6066 4.21583 11.0879 4.40806 10.5973C4.60046 10.1065 4.86759 9.66485 5.20944 9.2723C4.94444 9.31732 4.71148 9.4109 4.51056 9.55305C4.30981 9.69538 4.16667 9.86541 4.08111 10.0631C3.255 10.2607 2.61111 10.718 2.14944 11.4352C1.68796 12.1523 1.54694 12.9468 1.72639 13.8186C1.72639 14.6318 2.01491 15.3222 2.59194 15.8899C3.1688 16.4576 3.87037 16.7415 4.69667 16.7415ZM15.3033 16.7415C16.3091 16.6826 17.1581 16.2947 17.8506 15.5777C18.5428 14.8606 18.8889 13.9967 18.8889 12.986C18.8889 11.9752 18.5428 11.1113 17.8506 10.3942C17.1581 9.67725 16.3091 9.28934 15.3033 9.23048C15.218 9.23048 15.1325 9.23394 15.0469 9.24087C14.9616 9.24779 14.8761 9.25827 14.7906 9.2723C15.2052 9.78678 15.5289 10.3598 15.7617 10.9915C15.9946 11.623 16.1111 12.2878 16.1111 12.986C16.1111 13.6841 15.9946 14.349 15.7617 14.9804C15.5289 15.6121 15.2052 16.1852 14.7906 16.6996C14.8761 16.7137 14.9616 16.7241 15.0469 16.7311C15.1325 16.738 15.218 16.7415 15.3033 16.7415ZM7.98194 18.6752C7.34861 18.4586 6.77343 18.1469 6.25639 17.7403C6.0612 17.8048 5.85537 17.8487 5.63889 17.8718C5.42241 17.895 5.20019 17.9065 4.97222 17.9065C3.60037 17.9065 2.4287 17.4285 1.45722 16.4725C0.485741 15.5164 0 14.3634 0 13.0133C0 11.6802 0.472963 10.5398 1.41889 9.59214C2.36463 8.64447 3.51065 8.15588 4.85694 8.12636C5.01361 8.12636 5.16315 8.13683 5.30556 8.15779C5.44796 8.17893 5.59037 8.20354 5.73278 8.2316L2.70722 2.27005C2.55056 1.97573 2.56093 1.69043 2.73833 1.41415C2.91556 1.13805 3.17444 1 3.515 1H6.24583C6.5862 1 6.89565 1.0883 7.17417 1.26489C7.45268 1.44148 7.67241 1.67704 7.83333 1.97154L10 6.21499L12.1667 1.97154C12.3276 1.67704 12.5473 1.44148 12.8258 1.26489C13.1044 1.0883 13.4138 1 13.7542 1H16.485C16.8256 1 17.0844 1.13805 17.2617 1.41415C17.4391 1.69043 17.4494 1.97573 17.2928 2.27005L14.3161 8.15588C14.4444 8.12781 14.5763 8.10676 14.7117 8.09273C14.8469 8.0787 14.9857 8.07168 15.1283 8.07168C16.4887 8.1054 17.6407 8.59609 18.5844 9.54375C19.5281 10.4914 20 11.6388 20 12.986C20 14.3543 19.5143 15.5164 18.5428 16.4725C17.5713 17.4285 16.3904 17.9065 15 17.9065C14.7763 17.9065 14.5587 17.895 14.3472 17.8718C14.1357 17.8487 13.9324 17.8048 13.7372 17.7403C13.2202 18.1329 12.6461 18.441 12.015 18.6646C11.3839 18.8882 10.7122 19 10 19C9.28778 19 8.61509 18.8917 7.98194 18.6752ZM10 14.1888L8.80972 15.0739C8.71287 15.1372 8.62315 15.1383 8.54056 15.0772C8.45796 15.0162 8.43519 14.9359 8.47222 14.8364L8.91444 13.3791L7.74583 12.5486C7.64898 12.4855 7.61907 12.4052 7.65611 12.3077C7.69315 12.2104 7.76435 12.1618 7.86972 12.1618H9.32278L9.78639 10.6372C9.82343 10.5377 9.89463 10.488 10 10.488C10.1054 10.488 10.1766 10.5377 10.2136 10.6372L10.6772 12.1618H12.1303C12.2356 12.1618 12.3069 12.2104 12.3439 12.3077C12.3809 12.4052 12.351 12.4855 12.2542 12.5486L11.0856 13.3791L11.5278 14.8364C11.5648 14.9359 11.542 15.0162 11.4594 15.0772C11.3769 15.1383 11.2871 15.1372 11.1903 15.0739L10 14.1888ZM13.2072 7.88443L16.1603 2.09346H13.3547L10.9294 6.82459L11.0514 7.06433C11.4388 7.13723 11.8134 7.23929 12.1753 7.3705C12.5371 7.50153 12.8811 7.67284 13.2072 7.88443Z" fill="#00313D"/>
</svg>
