<?xml version="1.0" encoding="UTF-8"?>
<svg id="Layer_1" xmlns="http://www.w3.org/2000/svg" xmlns:xlink="http://www.w3.org/1999/xlink" version="1.1" viewBox="0 0 145 160">
  <!-- Generator: Adobe Illustrator 29.3.0, SVG Export Plug-In . SVG Version: 2.1.0 Build 146)  -->
  <defs>
    <style>
      .st0 {
        fill: none;
      }

      .st1 {
        fill: #fff;
      }

      .st2 {
        clip-path: url(#clippath);
      }
    </style>
    <clipPath id="clippath">
      <rect class="st0" x="-94.5" y="-104.5" width="334" height="369"/>
    </clipPath>
  </defs>
  <g class="st2">
    <g>
      <path class="st1" d="M56.4,133.7c0-7.6-6.2-13.7-13.8-13.7s-13.8,6.1-13.8,13.7,6.2,13.7,13.8,13.7.8,0,1.2,0c0-.4,0-.7,0-1.1s0-.8,0-1.2c-.4,0-.8,0-1.2,0-6.4,0-11.5-5.1-11.5-11.4s5.2-11.4,11.5-11.4,11.5,5.1,11.5,11.4-3.3,9.4-7.9,10.9c0,.6-.1,1.1-.1,1.7s0,.5,0,.7c6-1.5,10.3-6.9,10.3-13.3"/>
      <path class="st1" d="M116.3,133.7c0,7.6-6.2,13.7-13.8,13.7s-13.2-5.5-13.8-12.5c.8,0,1.6.3,2.4.5.8,5.5,5.6,9.7,11.4,9.7s11.5-5.1,11.5-11.4-5.2-11.4-11.5-11.4-11.1,4.7-11.5,10.7c-.7-.2-1.5-.3-2.3-.4.6-7.1,6.5-12.6,13.8-12.6s13.8,6.1,13.8,13.7"/>
      <path class="st1" d="M87.5,134.8c5.8,0,10.6,4.2,11.4,9.7.8.2,1.6.4,2.4.5-.6-7-6.5-12.5-13.8-12.5s-.8,0-1.2,0c0,.4,0,.7,0,1.1s0,.8,0,1.2c.4,0,.8,0,1.2,0ZM99,147c-.4,6-5.4,10.7-11.5,10.7s-11.5-5.1-11.5-11.4,3.3-9.4,7.9-10.9c0-.6.1-1.1.1-1.7s0-.5,0-.7c-6,1.5-10.4,6.9-10.4,13.3s6.2,13.7,13.8,13.7,13.2-5.6,13.8-12.6c-.8,0-1.5-.2-2.3-.4"/>
      <path class="st1" d="M56.3,134.9c0-.4,0-.8,0-1.2s0-.7,0-1.1c.4,0,.8,0,1.2,0,7.2,0,13.2,5.5,13.8,12.5-.8,0-1.6-.3-2.4-.5-.8-5.5-5.6-9.7-11.4-9.7s-.8,0-1.2,0M71.3,147.4c-.6,7.1-6.5,12.6-13.8,12.6s-13.8-6.1-13.8-13.7,4.4-11.8,10.3-13.3c0,.2,0,.5,0,.7,0,.6,0,1.2-.1,1.7-4.6,1.5-7.9,5.8-7.9,10.9s5.2,11.4,11.5,11.4,11.1-4.7,11.5-10.7c.7.2,1.5.3,2.3.4Z"/>
      <path class="st1" d="M72.5,120c-7.3,0-13.2,5.6-13.8,12.6.8,0,1.5.2,2.3.4.4-6,5.4-10.7,11.5-10.7s11.5,5.1,11.5,11.4-3.3,9.4-7.9,10.9c0,.6-.1,1.1-.1,1.7s0,.5,0,.7c6-1.5,10.3-6.9,10.3-13.3s-6.2-13.7-13.8-13.7M72.5,145.1c-5.8,0-10.6-4.2-11.4-9.7-.8-.2-1.6-.4-2.4-.5.6,7,6.5,12.5,13.8,12.5s.8,0,1.2,0c0-.4,0-.7,0-1.1s0-.8,0-1.2c-.4,0-.8,0-1.2,0"/>
      <path class="st1" d="M19.4,91.6v7.3h2v-9.8c0-.6-.5-1.1-1.1-1.1s-.6.2-.8.4l-6.2,7.5v-6.8c0-.6-.5-1.1-1.1-1.1s-.6.1-.8.3L0,99h3l8.3-7.7v6.5c0,.7.6,1.3,1.4,1.3s.8-.2,1.1-.6l5.7-7Z"/>
      <path class="st1" d="M25.6,88.2h-2v10.7h2v-10.7Z"/>
      <path class="st1" d="M34.4,99v-1.9h-4.7v-8.8h-2v10.7h6.8Z"/>
      <path class="st1" d="M41.6,88.6c-.2-.3-.4-.5-.8-.5s-.7.2-.8.5l-4.8,10.4h2.2l1.1-2.5h4.6l1.1,2.5h2.3l-4.9-10.4h0ZM39.3,94.6l1.5-3.2,1.4,3.2h-2.9,0Z"/>
      <path class="st1" d="M49.2,91.8v7.2h-2v-9.8c0-.6.5-1.1,1.1-1.1s.6.1.9.5l5.7,6.9v-7.2h2v9.8c0,.6-.5,1.1-1.1,1.1s-.6-.1-.9-.4l-5.7-6.9Z"/>
      <path class="st1" d="M64.1,88.1c-3.1,0-5.6,2.5-5.6,5.5s2.5,5.5,5.6,5.5,5.6-2.5,5.6-5.5-2.5-5.5-5.6-5.5ZM64.1,97.3c-2,0-3.5-1.7-3.5-3.7s1.5-3.7,3.5-3.7,3.5,1.7,3.5,3.7-1.5,3.7-3.5,3.7Z"/>
      <path class="st1" d="M75.9,93.6c0,2,1.5,3.7,3.6,3.7s2.1-.7,2.5-1.6h2.3c-.4,1.8-2.3,3.4-4.8,3.4s-5.7-2.5-5.7-5.5,2.4-5.5,5.7-5.5,4.4,1.5,4.8,3.5h-2.3c-.3-.9-1.2-1.7-2.5-1.7-2.1,0-3.6,1.7-3.6,3.7"/>
      <path class="st1" d="M90.7,88.1c-3.1,0-5.6,2.5-5.6,5.5s2.5,5.5,5.6,5.5,5.6-2.5,5.6-5.5-2.5-5.5-5.6-5.5ZM90.7,97.3c-2,0-3.5-1.7-3.5-3.7s1.5-3.7,3.5-3.7,3.5,1.7,3.5,3.7-1.5,3.7-3.5,3.7Z"/>
      <path class="st1" d="M102.7,94.2c1.5-.3,2.4-1.5,2.4-3s-1.3-3-3.2-3h-4.1v10.7h2v-4.6h.5l3.5,4.6h2.5l-3.6-4.7h0ZM99.8,92.5v-2.5h1.6c1,0,1.6.4,1.6,1.3s-.6,1.3-1.6,1.3h-1.6Z"/>
      <path class="st1" d="M109.2,99h2v-8.8h3v-1.9h-8.1v1.9h3v8.8Z"/>
      <path class="st1" d="M117.8,88.2h-2v10.7h2v-10.7Z"/>
      <path class="st1" d="M121.9,91.8v7.2h-2v-9.8c0-.6.5-1.1,1.1-1.1s.6.1.9.5l5.7,6.9v-7.2h2v9.8c0,.6-.5,1.1-1.1,1.1s-.6-.1-.9-.4l-5.7-6.9Z"/>
      <path class="st1" d="M133.6,88.4c-.2-.2-.5-.3-.8-.3-.6,0-1.1.5-1.1,1.1v9.8h2v-2.5h5.6l2.7,2.5h3l-11.4-10.6h0ZM133.7,94.6v-3.4l3.6,3.4h-3.6Z"/>
      <path class="st1" d="M73.3,112.1c0-.3.2-.6.5-.9l3.8-4.1c.6-.6,1-1.2,1-1.9s-.6-1.2-1.5-1.2-1.6.7-1.6,1.6h-2c0-1.6,1.3-3.4,3.6-3.4s3.6,1.3,3.6,2.9-.7,2-1.6,3l-2.9,3.1h4.6v1.9h-6.4c-.6,0-1-.4-1-1"/>
      <path class="st1" d="M68.5,102.2c-2.5,0-3.8,2.4-3.8,5.5s1.2,5.5,3.8,5.5,3.8-2.4,3.8-5.5-1.2-5.5-3.8-5.5ZM68.5,111.5c-1,0-1.7-1.3-1.7-3.7s.6-3.7,1.7-3.7,1.7,1.3,1.7,3.7-.6,3.7-1.7,3.7Z"/>
      <path class="st1" d="M56.4,112.1c0-.3.2-.6.5-.9l3.8-4.1c.6-.6,1-1.2,1-1.9s-.6-1.2-1.5-1.2-1.6.7-1.6,1.6h-2c0-1.6,1.3-3.4,3.6-3.4s3.6,1.3,3.6,2.9-.7,2-1.6,3l-2.9,3.1h4.6v1.9h-6.4c-.6,0-1-.4-1-1"/>
      <path class="st1" d="M84.9,106l2.2-3.6h-2.1l-3.2,5.2c-.3.6-.6,1.3-.6,2,0,2,1.7,3.7,3.7,3.7s3.7-1.6,3.7-3.7-1.7-3.7-3.7-3.7ZM85,111.5c-1,0-1.6-.8-1.6-1.8s.6-1.8,1.6-1.8,1.6.8,1.6,1.8-.6,1.8-1.6,1.8Z"/>
      <path class="st1" d="M35.3,81.4c-1.1,0-2.2-.3-3.1-.8-1.5-.8-2.5-2.2-3-3.8-.5-1.6-.2-3.3.6-4.8l25.8-45.1-12.4,3.1c-.5.1-1,.2-1.6.2-2.9,0-5.5-2-6.2-4.8-.4-1.6-.2-3.3.7-4.8.9-1.5,2.3-2.5,3.9-2.9l26.8-6.7h0c.5-.1,1-.2,1.6-.2,1.1,0,2.2.3,3.1.8,3.1,1.7,4.1,5.6,2.4,8.6l-21.8,38.2,14.8-8.3L92.8,3.3c1.1-2,3.3-3.3,5.6-3.3s2.1.3,3.1.8c1.5.8,2.6,2.2,3.1,3.8.5,1.6.3,3.3-.5,4.8l-16,29.2,18.6-10.3h0c1-.6,2-.9,3.1-.9s1.6.1,2.3.4c1.6.6,2.8,1.8,3.5,3.4.7,1.6.7,3.3,0,4.8l-16.5,41.3c-.3.8-.8,1.5-1.4,2.2-1.2,1.2-2.8,1.9-4.6,1.9s-3.2-.6-4.4-1.8l-17.7-17.1-32.5,18.1c-1,.6-2.1.9-3.2.9M82.6,56l8.2,7.9,6.4-16-14.5,8.1h0Z"/>
    </g>
  </g>
</svg>